<mxfile host="app.diagrams.net" modified="2023-07-26T20:17:06.073Z" agent="Mozilla/5.0 (Windows NT 10.0; Win64; x64) AppleWebKit/537.36 (KHTML, like Gecko) Chrome/115.0.0.0 Safari/537.36" etag="volHTNdr-1tZtwPAyOA2" version="21.6.5" type="device">
  <diagram name="PÃ¡gina-1" id="w6s2HXCuN9cjPwSU-ddr">
    <mxGraphModel dx="1050" dy="542" grid="1" gridSize="10" guides="1" tooltips="1" connect="1" arrows="1" fold="1" page="1" pageScale="1" pageWidth="827" pageHeight="1169" math="0" shadow="0">
      <root>
        <mxCell id="0" />
        <mxCell id="1" parent="0" />
        <mxCell id="c48iMOqWYTTzBndpg-Cr-2" value="Pessoa" style="rounded=0;whiteSpace=wrap;html=1;" parent="1" vertex="1">
          <mxGeometry x="340" y="52" width="120" height="60" as="geometry" />
        </mxCell>
        <mxCell id="c48iMOqWYTTzBndpg-Cr-3" value="Telefone" style="rounded=0;whiteSpace=wrap;html=1;" parent="1" vertex="1">
          <mxGeometry x="30" y="52" width="120" height="60" as="geometry" />
        </mxCell>
        <mxCell id="c48iMOqWYTTzBndpg-Cr-4" value="CNH" style="ellipse;whiteSpace=wrap;html=1;" parent="1" vertex="1">
          <mxGeometry x="630" y="52" width="100" height="60" as="geometry" />
        </mxCell>
        <mxCell id="c48iMOqWYTTzBndpg-Cr-5" value="Email" style="rounded=0;whiteSpace=wrap;html=1;" parent="1" vertex="1">
          <mxGeometry x="340" y="242" width="120" height="60" as="geometry" />
        </mxCell>
        <mxCell id="c48iMOqWYTTzBndpg-Cr-14" style="edgeStyle=orthogonalEdgeStyle;rounded=0;orthogonalLoop=1;jettySize=auto;html=1;strokeColor=none;" parent="1" source="c48iMOqWYTTzBndpg-Cr-6" target="c48iMOqWYTTzBndpg-Cr-5" edge="1">
          <mxGeometry relative="1" as="geometry" />
        </mxCell>
        <mxCell id="c48iMOqWYTTzBndpg-Cr-6" value="Possui" style="rhombus;whiteSpace=wrap;html=1;" parent="1" vertex="1">
          <mxGeometry x="365" y="152" width="70" height="70" as="geometry" />
        </mxCell>
        <mxCell id="c48iMOqWYTTzBndpg-Cr-7" value="Possui" style="rhombus;whiteSpace=wrap;html=1;" parent="1" vertex="1">
          <mxGeometry x="200" y="42" width="80" height="80" as="geometry" />
        </mxCell>
        <mxCell id="c48iMOqWYTTzBndpg-Cr-10" value="1" style="text;html=1;align=center;verticalAlign=middle;resizable=0;points=[];autosize=1;strokeColor=none;fillColor=none;" parent="1" vertex="1">
          <mxGeometry x="400" y="110" width="30" height="30" as="geometry" />
        </mxCell>
        <mxCell id="c48iMOqWYTTzBndpg-Cr-11" value="N" style="text;html=1;align=center;verticalAlign=middle;resizable=0;points=[];autosize=1;strokeColor=none;fillColor=none;" parent="1" vertex="1">
          <mxGeometry x="415" y="200" width="30" height="30" as="geometry" />
        </mxCell>
        <mxCell id="c48iMOqWYTTzBndpg-Cr-12" value="N" style="text;html=1;align=center;verticalAlign=middle;resizable=0;points=[];autosize=1;strokeColor=none;fillColor=none;" parent="1" vertex="1">
          <mxGeometry x="185" y="40" width="30" height="30" as="geometry" />
        </mxCell>
        <mxCell id="c48iMOqWYTTzBndpg-Cr-13" value="1" style="text;html=1;align=center;verticalAlign=middle;resizable=0;points=[];autosize=1;strokeColor=none;fillColor=none;" parent="1" vertex="1">
          <mxGeometry x="305" y="50" width="30" height="30" as="geometry" />
        </mxCell>
        <mxCell id="c48iMOqWYTTzBndpg-Cr-15" value="" style="endArrow=none;html=1;rounded=0;entryX=0.5;entryY=1;entryDx=0;entryDy=0;exitX=0.5;exitY=0;exitDx=0;exitDy=0;" parent="1" source="c48iMOqWYTTzBndpg-Cr-6" target="c48iMOqWYTTzBndpg-Cr-2" edge="1">
          <mxGeometry width="50" height="50" relative="1" as="geometry">
            <mxPoint x="395" y="152" as="sourcePoint" />
            <mxPoint x="445" y="102" as="targetPoint" />
          </mxGeometry>
        </mxCell>
        <mxCell id="c48iMOqWYTTzBndpg-Cr-16" value="" style="endArrow=none;html=1;rounded=0;exitX=1;exitY=0.5;exitDx=0;exitDy=0;entryX=0;entryY=0.5;entryDx=0;entryDy=0;" parent="1" source="c48iMOqWYTTzBndpg-Cr-2" target="c48iMOqWYTTzBndpg-Cr-4" edge="1">
          <mxGeometry width="50" height="50" relative="1" as="geometry">
            <mxPoint x="490" y="100" as="sourcePoint" />
            <mxPoint x="540" y="50" as="targetPoint" />
            <Array as="points" />
          </mxGeometry>
        </mxCell>
        <mxCell id="c48iMOqWYTTzBndpg-Cr-17" value="" style="endArrow=none;html=1;rounded=0;entryX=0;entryY=0.5;entryDx=0;entryDy=0;exitX=1;exitY=0.5;exitDx=0;exitDy=0;" parent="1" source="c48iMOqWYTTzBndpg-Cr-7" target="c48iMOqWYTTzBndpg-Cr-2" edge="1">
          <mxGeometry width="50" height="50" relative="1" as="geometry">
            <mxPoint x="300" y="90" as="sourcePoint" />
            <mxPoint x="350" y="40" as="targetPoint" />
          </mxGeometry>
        </mxCell>
        <mxCell id="c48iMOqWYTTzBndpg-Cr-18" value="" style="endArrow=none;html=1;rounded=0;entryX=0;entryY=0.5;entryDx=0;entryDy=0;exitX=1;exitY=0.5;exitDx=0;exitDy=0;" parent="1" source="c48iMOqWYTTzBndpg-Cr-3" target="c48iMOqWYTTzBndpg-Cr-7" edge="1">
          <mxGeometry width="50" height="50" relative="1" as="geometry">
            <mxPoint x="150" y="92" as="sourcePoint" />
            <mxPoint x="200" y="42" as="targetPoint" />
            <Array as="points" />
          </mxGeometry>
        </mxCell>
        <mxCell id="c48iMOqWYTTzBndpg-Cr-19" value="" style="endArrow=none;html=1;rounded=0;entryX=0.5;entryY=1;entryDx=0;entryDy=0;" parent="1" target="c48iMOqWYTTzBndpg-Cr-6" edge="1">
          <mxGeometry width="50" height="50" relative="1" as="geometry">
            <mxPoint x="400" y="242" as="sourcePoint" />
            <mxPoint x="440" y="192" as="targetPoint" />
          </mxGeometry>
        </mxCell>
        <mxCell id="Avi3vkmwuteyZWdYdr20-1" value="Pessoa" style="shape=table;startSize=30;container=1;collapsible=1;childLayout=tableLayout;fixedRows=1;rowLines=0;fontStyle=1;align=center;resizeLast=1;html=1;" vertex="1" parent="1">
          <mxGeometry x="100" y="405" width="180" height="140" as="geometry" />
        </mxCell>
        <mxCell id="Avi3vkmwuteyZWdYdr20-2" value="" style="shape=tableRow;horizontal=0;startSize=0;swimlaneHead=0;swimlaneBody=0;fillColor=none;collapsible=0;dropTarget=0;points=[[0,0.5],[1,0.5]];portConstraint=eastwest;top=0;left=0;right=0;bottom=1;" vertex="1" parent="Avi3vkmwuteyZWdYdr20-1">
          <mxGeometry y="30" width="180" height="30" as="geometry" />
        </mxCell>
        <mxCell id="Avi3vkmwuteyZWdYdr20-3" value="PK" style="shape=partialRectangle;connectable=0;fillColor=none;top=0;left=0;bottom=0;right=0;fontStyle=1;overflow=hidden;whiteSpace=wrap;html=1;" vertex="1" parent="Avi3vkmwuteyZWdYdr20-2">
          <mxGeometry width="30" height="30" as="geometry">
            <mxRectangle width="30" height="30" as="alternateBounds" />
          </mxGeometry>
        </mxCell>
        <mxCell id="Avi3vkmwuteyZWdYdr20-4" value="IdPessoa" style="shape=partialRectangle;connectable=0;fillColor=none;top=0;left=0;bottom=0;right=0;align=left;spacingLeft=6;fontStyle=5;overflow=hidden;whiteSpace=wrap;html=1;" vertex="1" parent="Avi3vkmwuteyZWdYdr20-2">
          <mxGeometry x="30" width="150" height="30" as="geometry">
            <mxRectangle width="150" height="30" as="alternateBounds" />
          </mxGeometry>
        </mxCell>
        <mxCell id="Avi3vkmwuteyZWdYdr20-5" value="" style="shape=tableRow;horizontal=0;startSize=0;swimlaneHead=0;swimlaneBody=0;fillColor=none;collapsible=0;dropTarget=0;points=[[0,0.5],[1,0.5]];portConstraint=eastwest;top=0;left=0;right=0;bottom=0;" vertex="1" parent="Avi3vkmwuteyZWdYdr20-1">
          <mxGeometry y="60" width="180" height="30" as="geometry" />
        </mxCell>
        <mxCell id="Avi3vkmwuteyZWdYdr20-6" value="" style="shape=partialRectangle;connectable=0;fillColor=none;top=0;left=0;bottom=0;right=0;editable=1;overflow=hidden;whiteSpace=wrap;html=1;" vertex="1" parent="Avi3vkmwuteyZWdYdr20-5">
          <mxGeometry width="30" height="30" as="geometry">
            <mxRectangle width="30" height="30" as="alternateBounds" />
          </mxGeometry>
        </mxCell>
        <mxCell id="Avi3vkmwuteyZWdYdr20-7" value="CNH" style="shape=partialRectangle;connectable=0;fillColor=none;top=0;left=0;bottom=0;right=0;align=left;spacingLeft=6;overflow=hidden;whiteSpace=wrap;html=1;" vertex="1" parent="Avi3vkmwuteyZWdYdr20-5">
          <mxGeometry x="30" width="150" height="30" as="geometry">
            <mxRectangle width="150" height="30" as="alternateBounds" />
          </mxGeometry>
        </mxCell>
        <mxCell id="Avi3vkmwuteyZWdYdr20-8" value="" style="shape=tableRow;horizontal=0;startSize=0;swimlaneHead=0;swimlaneBody=0;fillColor=none;collapsible=0;dropTarget=0;points=[[0,0.5],[1,0.5]];portConstraint=eastwest;top=0;left=0;right=0;bottom=0;" vertex="1" parent="Avi3vkmwuteyZWdYdr20-1">
          <mxGeometry y="90" width="180" height="30" as="geometry" />
        </mxCell>
        <mxCell id="Avi3vkmwuteyZWdYdr20-9" value="" style="shape=partialRectangle;connectable=0;fillColor=none;top=0;left=0;bottom=0;right=0;editable=1;overflow=hidden;whiteSpace=wrap;html=1;" vertex="1" parent="Avi3vkmwuteyZWdYdr20-8">
          <mxGeometry width="30" height="30" as="geometry">
            <mxRectangle width="30" height="30" as="alternateBounds" />
          </mxGeometry>
        </mxCell>
        <mxCell id="Avi3vkmwuteyZWdYdr20-10" value="" style="shape=partialRectangle;connectable=0;fillColor=none;top=0;left=0;bottom=0;right=0;align=left;spacingLeft=6;overflow=hidden;whiteSpace=wrap;html=1;" vertex="1" parent="Avi3vkmwuteyZWdYdr20-8">
          <mxGeometry x="30" width="150" height="30" as="geometry">
            <mxRectangle width="150" height="30" as="alternateBounds" />
          </mxGeometry>
        </mxCell>
        <mxCell id="Avi3vkmwuteyZWdYdr20-11" value="" style="shape=tableRow;horizontal=0;startSize=0;swimlaneHead=0;swimlaneBody=0;fillColor=none;collapsible=0;dropTarget=0;points=[[0,0.5],[1,0.5]];portConstraint=eastwest;top=0;left=0;right=0;bottom=0;" vertex="1" parent="Avi3vkmwuteyZWdYdr20-1">
          <mxGeometry y="120" width="180" height="20" as="geometry" />
        </mxCell>
        <mxCell id="Avi3vkmwuteyZWdYdr20-12" value="" style="shape=partialRectangle;connectable=0;fillColor=none;top=0;left=0;bottom=0;right=0;editable=1;overflow=hidden;whiteSpace=wrap;html=1;" vertex="1" parent="Avi3vkmwuteyZWdYdr20-11">
          <mxGeometry width="30" height="20" as="geometry">
            <mxRectangle width="30" height="20" as="alternateBounds" />
          </mxGeometry>
        </mxCell>
        <mxCell id="Avi3vkmwuteyZWdYdr20-13" value="&lt;span style=&quot;white-space: pre;&quot;&gt;&#x9;&lt;/span&gt;" style="shape=partialRectangle;connectable=0;fillColor=none;top=0;left=0;bottom=0;right=0;align=left;spacingLeft=6;overflow=hidden;whiteSpace=wrap;html=1;" vertex="1" parent="Avi3vkmwuteyZWdYdr20-11">
          <mxGeometry x="30" width="150" height="20" as="geometry">
            <mxRectangle width="150" height="20" as="alternateBounds" />
          </mxGeometry>
        </mxCell>
        <mxCell id="Avi3vkmwuteyZWdYdr20-14" value="Telefone" style="shape=table;startSize=30;container=1;collapsible=1;childLayout=tableLayout;fixedRows=1;rowLines=0;fontStyle=1;align=center;resizeLast=1;html=1;whiteSpace=wrap;fillStyle=auto;" vertex="1" parent="1">
          <mxGeometry x="490" y="545" width="160" height="145" as="geometry" />
        </mxCell>
        <mxCell id="Avi3vkmwuteyZWdYdr20-15" value="" style="shape=tableRow;horizontal=0;startSize=0;swimlaneHead=0;swimlaneBody=0;fillColor=none;collapsible=0;dropTarget=0;points=[[0,0.5],[1,0.5]];portConstraint=eastwest;top=0;left=0;right=0;bottom=0;html=1;" vertex="1" parent="Avi3vkmwuteyZWdYdr20-14">
          <mxGeometry y="30" width="160" height="30" as="geometry" />
        </mxCell>
        <mxCell id="Avi3vkmwuteyZWdYdr20-16" value="PK" style="shape=partialRectangle;connectable=0;fillColor=none;top=0;left=0;bottom=0;right=0;fontStyle=1;overflow=hidden;html=1;whiteSpace=wrap;" vertex="1" parent="Avi3vkmwuteyZWdYdr20-15">
          <mxGeometry width="60" height="30" as="geometry">
            <mxRectangle width="60" height="30" as="alternateBounds" />
          </mxGeometry>
        </mxCell>
        <mxCell id="Avi3vkmwuteyZWdYdr20-17" value="IdTelefone" style="shape=partialRectangle;connectable=0;fillColor=none;top=0;left=0;bottom=0;right=0;align=left;spacingLeft=6;fontStyle=5;overflow=hidden;html=1;whiteSpace=wrap;" vertex="1" parent="Avi3vkmwuteyZWdYdr20-15">
          <mxGeometry x="60" width="100" height="30" as="geometry">
            <mxRectangle width="100" height="30" as="alternateBounds" />
          </mxGeometry>
        </mxCell>
        <mxCell id="Avi3vkmwuteyZWdYdr20-18" value="" style="shape=tableRow;horizontal=0;startSize=0;swimlaneHead=0;swimlaneBody=0;fillColor=none;collapsible=0;dropTarget=0;points=[[0,0.5],[1,0.5]];portConstraint=eastwest;top=0;left=0;right=0;bottom=1;html=1;" vertex="1" parent="Avi3vkmwuteyZWdYdr20-14">
          <mxGeometry y="60" width="160" height="30" as="geometry" />
        </mxCell>
        <mxCell id="Avi3vkmwuteyZWdYdr20-19" value="FK" style="shape=partialRectangle;connectable=0;fillColor=none;top=0;left=0;bottom=0;right=0;fontStyle=1;overflow=hidden;html=1;whiteSpace=wrap;" vertex="1" parent="Avi3vkmwuteyZWdYdr20-18">
          <mxGeometry width="60" height="30" as="geometry">
            <mxRectangle width="60" height="30" as="alternateBounds" />
          </mxGeometry>
        </mxCell>
        <mxCell id="Avi3vkmwuteyZWdYdr20-20" value="IdPessoa" style="shape=partialRectangle;connectable=0;fillColor=none;top=0;left=0;bottom=0;right=0;align=left;spacingLeft=6;fontStyle=5;overflow=hidden;html=1;whiteSpace=wrap;" vertex="1" parent="Avi3vkmwuteyZWdYdr20-18">
          <mxGeometry x="60" width="100" height="30" as="geometry">
            <mxRectangle width="100" height="30" as="alternateBounds" />
          </mxGeometry>
        </mxCell>
        <mxCell id="Avi3vkmwuteyZWdYdr20-21" value="" style="shape=tableRow;horizontal=0;startSize=0;swimlaneHead=0;swimlaneBody=0;fillColor=none;collapsible=0;dropTarget=0;points=[[0,0.5],[1,0.5]];portConstraint=eastwest;top=0;left=0;right=0;bottom=0;html=1;" vertex="1" parent="Avi3vkmwuteyZWdYdr20-14">
          <mxGeometry y="90" width="160" height="30" as="geometry" />
        </mxCell>
        <mxCell id="Avi3vkmwuteyZWdYdr20-22" value="" style="shape=partialRectangle;connectable=0;fillColor=none;top=0;left=0;bottom=0;right=0;editable=1;overflow=hidden;html=1;whiteSpace=wrap;" vertex="1" parent="Avi3vkmwuteyZWdYdr20-21">
          <mxGeometry width="60" height="30" as="geometry">
            <mxRectangle width="60" height="30" as="alternateBounds" />
          </mxGeometry>
        </mxCell>
        <mxCell id="Avi3vkmwuteyZWdYdr20-23" value="Numero" style="shape=partialRectangle;connectable=0;fillColor=none;top=0;left=0;bottom=0;right=0;align=left;spacingLeft=6;overflow=hidden;html=1;whiteSpace=wrap;" vertex="1" parent="Avi3vkmwuteyZWdYdr20-21">
          <mxGeometry x="60" width="100" height="30" as="geometry">
            <mxRectangle width="100" height="30" as="alternateBounds" />
          </mxGeometry>
        </mxCell>
        <mxCell id="Avi3vkmwuteyZWdYdr20-24" value="" style="shape=tableRow;horizontal=0;startSize=0;swimlaneHead=0;swimlaneBody=0;fillColor=none;collapsible=0;dropTarget=0;points=[[0,0.5],[1,0.5]];portConstraint=eastwest;top=0;left=0;right=0;bottom=0;html=1;" vertex="1" parent="Avi3vkmwuteyZWdYdr20-14">
          <mxGeometry y="120" width="160" height="25" as="geometry" />
        </mxCell>
        <mxCell id="Avi3vkmwuteyZWdYdr20-25" value="" style="shape=partialRectangle;connectable=0;fillColor=none;top=0;left=0;bottom=0;right=0;editable=1;overflow=hidden;html=1;whiteSpace=wrap;" vertex="1" parent="Avi3vkmwuteyZWdYdr20-24">
          <mxGeometry width="60" height="25" as="geometry">
            <mxRectangle width="60" height="25" as="alternateBounds" />
          </mxGeometry>
        </mxCell>
        <mxCell id="Avi3vkmwuteyZWdYdr20-26" value="" style="shape=partialRectangle;connectable=0;fillColor=none;top=0;left=0;bottom=0;right=0;align=left;spacingLeft=6;overflow=hidden;html=1;whiteSpace=wrap;" vertex="1" parent="Avi3vkmwuteyZWdYdr20-24">
          <mxGeometry x="60" width="100" height="25" as="geometry">
            <mxRectangle width="100" height="25" as="alternateBounds" />
          </mxGeometry>
        </mxCell>
        <mxCell id="Avi3vkmwuteyZWdYdr20-27" value="Email" style="shape=table;startSize=30;container=1;collapsible=1;childLayout=tableLayout;fixedRows=1;rowLines=0;fontStyle=1;align=center;resizeLast=1;html=1;whiteSpace=wrap;fillStyle=auto;" vertex="1" parent="1">
          <mxGeometry x="490" y="340" width="160" height="145" as="geometry" />
        </mxCell>
        <mxCell id="Avi3vkmwuteyZWdYdr20-28" value="" style="shape=tableRow;horizontal=0;startSize=0;swimlaneHead=0;swimlaneBody=0;fillColor=none;collapsible=0;dropTarget=0;points=[[0,0.5],[1,0.5]];portConstraint=eastwest;top=0;left=0;right=0;bottom=0;html=1;" vertex="1" parent="Avi3vkmwuteyZWdYdr20-27">
          <mxGeometry y="30" width="160" height="30" as="geometry" />
        </mxCell>
        <mxCell id="Avi3vkmwuteyZWdYdr20-29" value="PK" style="shape=partialRectangle;connectable=0;fillColor=none;top=0;left=0;bottom=0;right=0;fontStyle=1;overflow=hidden;html=1;whiteSpace=wrap;" vertex="1" parent="Avi3vkmwuteyZWdYdr20-28">
          <mxGeometry width="60" height="30" as="geometry">
            <mxRectangle width="60" height="30" as="alternateBounds" />
          </mxGeometry>
        </mxCell>
        <mxCell id="Avi3vkmwuteyZWdYdr20-30" value="IdEmail" style="shape=partialRectangle;connectable=0;fillColor=none;top=0;left=0;bottom=0;right=0;align=left;spacingLeft=6;fontStyle=5;overflow=hidden;html=1;whiteSpace=wrap;" vertex="1" parent="Avi3vkmwuteyZWdYdr20-28">
          <mxGeometry x="60" width="100" height="30" as="geometry">
            <mxRectangle width="100" height="30" as="alternateBounds" />
          </mxGeometry>
        </mxCell>
        <mxCell id="Avi3vkmwuteyZWdYdr20-31" value="" style="shape=tableRow;horizontal=0;startSize=0;swimlaneHead=0;swimlaneBody=0;fillColor=none;collapsible=0;dropTarget=0;points=[[0,0.5],[1,0.5]];portConstraint=eastwest;top=0;left=0;right=0;bottom=1;html=1;" vertex="1" parent="Avi3vkmwuteyZWdYdr20-27">
          <mxGeometry y="60" width="160" height="30" as="geometry" />
        </mxCell>
        <mxCell id="Avi3vkmwuteyZWdYdr20-32" value="FK" style="shape=partialRectangle;connectable=0;fillColor=none;top=0;left=0;bottom=0;right=0;fontStyle=1;overflow=hidden;html=1;whiteSpace=wrap;" vertex="1" parent="Avi3vkmwuteyZWdYdr20-31">
          <mxGeometry width="60" height="30" as="geometry">
            <mxRectangle width="60" height="30" as="alternateBounds" />
          </mxGeometry>
        </mxCell>
        <mxCell id="Avi3vkmwuteyZWdYdr20-33" value="IdPessoa" style="shape=partialRectangle;connectable=0;fillColor=none;top=0;left=0;bottom=0;right=0;align=left;spacingLeft=6;fontStyle=5;overflow=hidden;html=1;whiteSpace=wrap;" vertex="1" parent="Avi3vkmwuteyZWdYdr20-31">
          <mxGeometry x="60" width="100" height="30" as="geometry">
            <mxRectangle width="100" height="30" as="alternateBounds" />
          </mxGeometry>
        </mxCell>
        <mxCell id="Avi3vkmwuteyZWdYdr20-34" value="" style="shape=tableRow;horizontal=0;startSize=0;swimlaneHead=0;swimlaneBody=0;fillColor=none;collapsible=0;dropTarget=0;points=[[0,0.5],[1,0.5]];portConstraint=eastwest;top=0;left=0;right=0;bottom=0;html=1;" vertex="1" parent="Avi3vkmwuteyZWdYdr20-27">
          <mxGeometry y="90" width="160" height="30" as="geometry" />
        </mxCell>
        <mxCell id="Avi3vkmwuteyZWdYdr20-35" value="" style="shape=partialRectangle;connectable=0;fillColor=none;top=0;left=0;bottom=0;right=0;editable=1;overflow=hidden;html=1;whiteSpace=wrap;" vertex="1" parent="Avi3vkmwuteyZWdYdr20-34">
          <mxGeometry width="60" height="30" as="geometry">
            <mxRectangle width="60" height="30" as="alternateBounds" />
          </mxGeometry>
        </mxCell>
        <mxCell id="Avi3vkmwuteyZWdYdr20-36" value="EndereÃ§o" style="shape=partialRectangle;connectable=0;fillColor=none;top=0;left=0;bottom=0;right=0;align=left;spacingLeft=6;overflow=hidden;html=1;whiteSpace=wrap;" vertex="1" parent="Avi3vkmwuteyZWdYdr20-34">
          <mxGeometry x="60" width="100" height="30" as="geometry">
            <mxRectangle width="100" height="30" as="alternateBounds" />
          </mxGeometry>
        </mxCell>
        <mxCell id="Avi3vkmwuteyZWdYdr20-37" value="" style="shape=tableRow;horizontal=0;startSize=0;swimlaneHead=0;swimlaneBody=0;fillColor=none;collapsible=0;dropTarget=0;points=[[0,0.5],[1,0.5]];portConstraint=eastwest;top=0;left=0;right=0;bottom=0;html=1;" vertex="1" parent="Avi3vkmwuteyZWdYdr20-27">
          <mxGeometry y="120" width="160" height="25" as="geometry" />
        </mxCell>
        <mxCell id="Avi3vkmwuteyZWdYdr20-38" value="" style="shape=partialRectangle;connectable=0;fillColor=none;top=0;left=0;bottom=0;right=0;editable=1;overflow=hidden;html=1;whiteSpace=wrap;" vertex="1" parent="Avi3vkmwuteyZWdYdr20-37">
          <mxGeometry width="60" height="25" as="geometry">
            <mxRectangle width="60" height="25" as="alternateBounds" />
          </mxGeometry>
        </mxCell>
        <mxCell id="Avi3vkmwuteyZWdYdr20-39" value="" style="shape=partialRectangle;connectable=0;fillColor=none;top=0;left=0;bottom=0;right=0;align=left;spacingLeft=6;overflow=hidden;html=1;whiteSpace=wrap;" vertex="1" parent="Avi3vkmwuteyZWdYdr20-37">
          <mxGeometry x="60" width="100" height="25" as="geometry">
            <mxRectangle width="100" height="25" as="alternateBounds" />
          </mxGeometry>
        </mxCell>
        <mxCell id="Avi3vkmwuteyZWdYdr20-44" value="Pessoa" style="shape=table;startSize=30;container=1;collapsible=0;childLayout=tableLayout;strokeColor=default;fontSize=16;" vertex="1" parent="1">
          <mxGeometry x="45" y="780" width="220" height="110" as="geometry" />
        </mxCell>
        <mxCell id="Avi3vkmwuteyZWdYdr20-45" value="" style="shape=tableRow;horizontal=0;startSize=0;swimlaneHead=0;swimlaneBody=0;strokeColor=inherit;top=0;left=0;bottom=0;right=0;collapsible=0;dropTarget=0;fillColor=none;points=[[0,0.5],[1,0.5]];portConstraint=eastwest;fontSize=16;" vertex="1" parent="Avi3vkmwuteyZWdYdr20-44">
          <mxGeometry y="30" width="220" height="27" as="geometry" />
        </mxCell>
        <mxCell id="Avi3vkmwuteyZWdYdr20-46" value="&lt;font style=&quot;font-size: 12px;&quot;&gt;IdPessoa&lt;/font&gt;" style="shape=partialRectangle;html=1;whiteSpace=wrap;connectable=0;strokeColor=inherit;overflow=hidden;fillColor=none;top=0;left=0;bottom=0;right=0;pointerEvents=1;fontSize=16;" vertex="1" parent="Avi3vkmwuteyZWdYdr20-45">
          <mxGeometry width="73" height="27" as="geometry">
            <mxRectangle width="73" height="27" as="alternateBounds" />
          </mxGeometry>
        </mxCell>
        <mxCell id="Avi3vkmwuteyZWdYdr20-47" value="CNH" style="shape=partialRectangle;html=1;whiteSpace=wrap;connectable=0;strokeColor=inherit;overflow=hidden;fillColor=none;top=0;left=0;bottom=0;right=0;pointerEvents=1;fontSize=16;" vertex="1" parent="Avi3vkmwuteyZWdYdr20-45">
          <mxGeometry x="73" width="74" height="27" as="geometry">
            <mxRectangle width="74" height="27" as="alternateBounds" />
          </mxGeometry>
        </mxCell>
        <mxCell id="Avi3vkmwuteyZWdYdr20-48" value="Nome" style="shape=partialRectangle;html=1;whiteSpace=wrap;connectable=0;strokeColor=inherit;overflow=hidden;fillColor=none;top=0;left=0;bottom=0;right=0;pointerEvents=1;fontSize=16;" vertex="1" parent="Avi3vkmwuteyZWdYdr20-45">
          <mxGeometry x="147" width="73" height="27" as="geometry">
            <mxRectangle width="73" height="27" as="alternateBounds" />
          </mxGeometry>
        </mxCell>
        <mxCell id="Avi3vkmwuteyZWdYdr20-49" value="" style="shape=tableRow;horizontal=0;startSize=0;swimlaneHead=0;swimlaneBody=0;strokeColor=inherit;top=0;left=0;bottom=0;right=0;collapsible=0;dropTarget=0;fillColor=none;points=[[0,0.5],[1,0.5]];portConstraint=eastwest;fontSize=16;" vertex="1" parent="Avi3vkmwuteyZWdYdr20-44">
          <mxGeometry y="57" width="220" height="26" as="geometry" />
        </mxCell>
        <mxCell id="Avi3vkmwuteyZWdYdr20-50" value="1" style="shape=partialRectangle;html=1;whiteSpace=wrap;connectable=0;strokeColor=inherit;overflow=hidden;fillColor=none;top=0;left=0;bottom=0;right=0;pointerEvents=1;fontSize=16;" vertex="1" parent="Avi3vkmwuteyZWdYdr20-49">
          <mxGeometry width="73" height="26" as="geometry">
            <mxRectangle width="73" height="26" as="alternateBounds" />
          </mxGeometry>
        </mxCell>
        <mxCell id="Avi3vkmwuteyZWdYdr20-51" value="0065547" style="shape=partialRectangle;html=1;whiteSpace=wrap;connectable=0;strokeColor=inherit;overflow=hidden;fillColor=none;top=0;left=0;bottom=0;right=0;pointerEvents=1;fontSize=16;" vertex="1" parent="Avi3vkmwuteyZWdYdr20-49">
          <mxGeometry x="73" width="74" height="26" as="geometry">
            <mxRectangle width="74" height="26" as="alternateBounds" />
          </mxGeometry>
        </mxCell>
        <mxCell id="Avi3vkmwuteyZWdYdr20-52" value="Artur" style="shape=partialRectangle;html=1;whiteSpace=wrap;connectable=0;strokeColor=inherit;overflow=hidden;fillColor=none;top=0;left=0;bottom=0;right=0;pointerEvents=1;fontSize=16;" vertex="1" parent="Avi3vkmwuteyZWdYdr20-49">
          <mxGeometry x="147" width="73" height="26" as="geometry">
            <mxRectangle width="73" height="26" as="alternateBounds" />
          </mxGeometry>
        </mxCell>
        <mxCell id="Avi3vkmwuteyZWdYdr20-53" value="" style="shape=tableRow;horizontal=0;startSize=0;swimlaneHead=0;swimlaneBody=0;strokeColor=inherit;top=0;left=0;bottom=0;right=0;collapsible=0;dropTarget=0;fillColor=none;points=[[0,0.5],[1,0.5]];portConstraint=eastwest;fontSize=16;" vertex="1" parent="Avi3vkmwuteyZWdYdr20-44">
          <mxGeometry y="83" width="220" height="27" as="geometry" />
        </mxCell>
        <mxCell id="Avi3vkmwuteyZWdYdr20-54" value="" style="shape=partialRectangle;html=1;whiteSpace=wrap;connectable=0;strokeColor=inherit;overflow=hidden;fillColor=none;top=0;left=0;bottom=0;right=0;pointerEvents=1;fontSize=16;" vertex="1" parent="Avi3vkmwuteyZWdYdr20-53">
          <mxGeometry width="73" height="27" as="geometry">
            <mxRectangle width="73" height="27" as="alternateBounds" />
          </mxGeometry>
        </mxCell>
        <mxCell id="Avi3vkmwuteyZWdYdr20-55" value="" style="shape=partialRectangle;html=1;whiteSpace=wrap;connectable=0;strokeColor=inherit;overflow=hidden;fillColor=none;top=0;left=0;bottom=0;right=0;pointerEvents=1;fontSize=16;" vertex="1" parent="Avi3vkmwuteyZWdYdr20-53">
          <mxGeometry x="73" width="74" height="27" as="geometry">
            <mxRectangle width="74" height="27" as="alternateBounds" />
          </mxGeometry>
        </mxCell>
        <mxCell id="Avi3vkmwuteyZWdYdr20-56" value="" style="shape=partialRectangle;html=1;whiteSpace=wrap;connectable=0;strokeColor=inherit;overflow=hidden;fillColor=none;top=0;left=0;bottom=0;right=0;pointerEvents=1;fontSize=16;" vertex="1" parent="Avi3vkmwuteyZWdYdr20-53">
          <mxGeometry x="147" width="73" height="27" as="geometry">
            <mxRectangle width="73" height="27" as="alternateBounds" />
          </mxGeometry>
        </mxCell>
        <mxCell id="Avi3vkmwuteyZWdYdr20-57" value="Telefone" style="shape=table;startSize=30;container=1;collapsible=0;childLayout=tableLayout;strokeColor=default;fontSize=16;" vertex="1" parent="1">
          <mxGeometry x="285" y="780" width="220" height="110" as="geometry" />
        </mxCell>
        <mxCell id="Avi3vkmwuteyZWdYdr20-58" value="" style="shape=tableRow;horizontal=0;startSize=0;swimlaneHead=0;swimlaneBody=0;strokeColor=inherit;top=0;left=0;bottom=0;right=0;collapsible=0;dropTarget=0;fillColor=none;points=[[0,0.5],[1,0.5]];portConstraint=eastwest;fontSize=16;" vertex="1" parent="Avi3vkmwuteyZWdYdr20-57">
          <mxGeometry y="30" width="220" height="27" as="geometry" />
        </mxCell>
        <mxCell id="Avi3vkmwuteyZWdYdr20-59" value="&lt;span style=&quot;font-size: 12px;&quot;&gt;IdTelefone&lt;/span&gt;" style="shape=partialRectangle;html=1;whiteSpace=wrap;connectable=0;strokeColor=inherit;overflow=hidden;fillColor=none;top=0;left=0;bottom=0;right=0;pointerEvents=1;fontSize=16;" vertex="1" parent="Avi3vkmwuteyZWdYdr20-58">
          <mxGeometry width="73" height="27" as="geometry">
            <mxRectangle width="73" height="27" as="alternateBounds" />
          </mxGeometry>
        </mxCell>
        <mxCell id="Avi3vkmwuteyZWdYdr20-60" value="IdPessoa" style="shape=partialRectangle;html=1;whiteSpace=wrap;connectable=0;strokeColor=inherit;overflow=hidden;fillColor=none;top=0;left=0;bottom=0;right=0;pointerEvents=1;fontSize=16;" vertex="1" parent="Avi3vkmwuteyZWdYdr20-58">
          <mxGeometry x="73" width="74" height="27" as="geometry">
            <mxRectangle width="74" height="27" as="alternateBounds" />
          </mxGeometry>
        </mxCell>
        <mxCell id="Avi3vkmwuteyZWdYdr20-61" value="Numero" style="shape=partialRectangle;html=1;whiteSpace=wrap;connectable=0;strokeColor=inherit;overflow=hidden;fillColor=none;top=0;left=0;bottom=0;right=0;pointerEvents=1;fontSize=16;" vertex="1" parent="Avi3vkmwuteyZWdYdr20-58">
          <mxGeometry x="147" width="73" height="27" as="geometry">
            <mxRectangle width="73" height="27" as="alternateBounds" />
          </mxGeometry>
        </mxCell>
        <mxCell id="Avi3vkmwuteyZWdYdr20-62" value="" style="shape=tableRow;horizontal=0;startSize=0;swimlaneHead=0;swimlaneBody=0;strokeColor=inherit;top=0;left=0;bottom=0;right=0;collapsible=0;dropTarget=0;fillColor=none;points=[[0,0.5],[1,0.5]];portConstraint=eastwest;fontSize=16;" vertex="1" parent="Avi3vkmwuteyZWdYdr20-57">
          <mxGeometry y="57" width="220" height="26" as="geometry" />
        </mxCell>
        <mxCell id="Avi3vkmwuteyZWdYdr20-63" value="1" style="shape=partialRectangle;html=1;whiteSpace=wrap;connectable=0;strokeColor=inherit;overflow=hidden;fillColor=none;top=0;left=0;bottom=0;right=0;pointerEvents=1;fontSize=16;" vertex="1" parent="Avi3vkmwuteyZWdYdr20-62">
          <mxGeometry width="73" height="26" as="geometry">
            <mxRectangle width="73" height="26" as="alternateBounds" />
          </mxGeometry>
        </mxCell>
        <mxCell id="Avi3vkmwuteyZWdYdr20-64" value="1" style="shape=partialRectangle;html=1;whiteSpace=wrap;connectable=0;strokeColor=inherit;overflow=hidden;fillColor=none;top=0;left=0;bottom=0;right=0;pointerEvents=1;fontSize=16;" vertex="1" parent="Avi3vkmwuteyZWdYdr20-62">
          <mxGeometry x="73" width="74" height="26" as="geometry">
            <mxRectangle width="74" height="26" as="alternateBounds" />
          </mxGeometry>
        </mxCell>
        <mxCell id="Avi3vkmwuteyZWdYdr20-65" value="99999" style="shape=partialRectangle;html=1;whiteSpace=wrap;connectable=0;strokeColor=inherit;overflow=hidden;fillColor=none;top=0;left=0;bottom=0;right=0;pointerEvents=1;fontSize=16;" vertex="1" parent="Avi3vkmwuteyZWdYdr20-62">
          <mxGeometry x="147" width="73" height="26" as="geometry">
            <mxRectangle width="73" height="26" as="alternateBounds" />
          </mxGeometry>
        </mxCell>
        <mxCell id="Avi3vkmwuteyZWdYdr20-66" value="" style="shape=tableRow;horizontal=0;startSize=0;swimlaneHead=0;swimlaneBody=0;strokeColor=inherit;top=0;left=0;bottom=0;right=0;collapsible=0;dropTarget=0;fillColor=none;points=[[0,0.5],[1,0.5]];portConstraint=eastwest;fontSize=16;" vertex="1" parent="Avi3vkmwuteyZWdYdr20-57">
          <mxGeometry y="83" width="220" height="27" as="geometry" />
        </mxCell>
        <mxCell id="Avi3vkmwuteyZWdYdr20-67" value="" style="shape=partialRectangle;html=1;whiteSpace=wrap;connectable=0;strokeColor=inherit;overflow=hidden;fillColor=none;top=0;left=0;bottom=0;right=0;pointerEvents=1;fontSize=16;" vertex="1" parent="Avi3vkmwuteyZWdYdr20-66">
          <mxGeometry width="73" height="27" as="geometry">
            <mxRectangle width="73" height="27" as="alternateBounds" />
          </mxGeometry>
        </mxCell>
        <mxCell id="Avi3vkmwuteyZWdYdr20-68" value="" style="shape=partialRectangle;html=1;whiteSpace=wrap;connectable=0;strokeColor=inherit;overflow=hidden;fillColor=none;top=0;left=0;bottom=0;right=0;pointerEvents=1;fontSize=16;" vertex="1" parent="Avi3vkmwuteyZWdYdr20-66">
          <mxGeometry x="73" width="74" height="27" as="geometry">
            <mxRectangle width="74" height="27" as="alternateBounds" />
          </mxGeometry>
        </mxCell>
        <mxCell id="Avi3vkmwuteyZWdYdr20-69" value="" style="shape=partialRectangle;html=1;whiteSpace=wrap;connectable=0;strokeColor=inherit;overflow=hidden;fillColor=none;top=0;left=0;bottom=0;right=0;pointerEvents=1;fontSize=16;" vertex="1" parent="Avi3vkmwuteyZWdYdr20-66">
          <mxGeometry x="147" width="73" height="27" as="geometry">
            <mxRectangle width="73" height="27" as="alternateBounds" />
          </mxGeometry>
        </mxCell>
        <mxCell id="Avi3vkmwuteyZWdYdr20-70" value="Email" style="shape=table;startSize=30;container=1;collapsible=0;childLayout=tableLayout;strokeColor=default;fontSize=16;" vertex="1" parent="1">
          <mxGeometry x="530" y="780" width="255" height="110" as="geometry" />
        </mxCell>
        <mxCell id="Avi3vkmwuteyZWdYdr20-71" value="" style="shape=tableRow;horizontal=0;startSize=0;swimlaneHead=0;swimlaneBody=0;strokeColor=inherit;top=0;left=0;bottom=0;right=0;collapsible=0;dropTarget=0;fillColor=none;points=[[0,0.5],[1,0.5]];portConstraint=eastwest;fontSize=16;" vertex="1" parent="Avi3vkmwuteyZWdYdr20-70">
          <mxGeometry y="30" width="255" height="27" as="geometry" />
        </mxCell>
        <mxCell id="Avi3vkmwuteyZWdYdr20-72" value="&lt;span style=&quot;font-size: 12px;&quot;&gt;IdEmail&lt;/span&gt;" style="shape=partialRectangle;html=1;whiteSpace=wrap;connectable=0;strokeColor=inherit;overflow=hidden;fillColor=none;top=0;left=0;bottom=0;right=0;pointerEvents=1;fontSize=16;" vertex="1" parent="Avi3vkmwuteyZWdYdr20-71">
          <mxGeometry width="85" height="27" as="geometry">
            <mxRectangle width="85" height="27" as="alternateBounds" />
          </mxGeometry>
        </mxCell>
        <mxCell id="Avi3vkmwuteyZWdYdr20-73" value="IdPessoa" style="shape=partialRectangle;html=1;whiteSpace=wrap;connectable=0;strokeColor=inherit;overflow=hidden;fillColor=none;top=0;left=0;bottom=0;right=0;pointerEvents=1;fontSize=16;" vertex="1" parent="Avi3vkmwuteyZWdYdr20-71">
          <mxGeometry x="85" width="85" height="27" as="geometry">
            <mxRectangle width="85" height="27" as="alternateBounds" />
          </mxGeometry>
        </mxCell>
        <mxCell id="Avi3vkmwuteyZWdYdr20-74" value="EndereÃ§o" style="shape=partialRectangle;html=1;whiteSpace=wrap;connectable=0;strokeColor=inherit;overflow=hidden;fillColor=none;top=0;left=0;bottom=0;right=0;pointerEvents=1;fontSize=16;" vertex="1" parent="Avi3vkmwuteyZWdYdr20-71">
          <mxGeometry x="170" width="85" height="27" as="geometry">
            <mxRectangle width="85" height="27" as="alternateBounds" />
          </mxGeometry>
        </mxCell>
        <mxCell id="Avi3vkmwuteyZWdYdr20-75" value="" style="shape=tableRow;horizontal=0;startSize=0;swimlaneHead=0;swimlaneBody=0;strokeColor=inherit;top=0;left=0;bottom=0;right=0;collapsible=0;dropTarget=0;fillColor=none;points=[[0,0.5],[1,0.5]];portConstraint=eastwest;fontSize=16;" vertex="1" parent="Avi3vkmwuteyZWdYdr20-70">
          <mxGeometry y="57" width="255" height="26" as="geometry" />
        </mxCell>
        <mxCell id="Avi3vkmwuteyZWdYdr20-76" value="1" style="shape=partialRectangle;html=1;whiteSpace=wrap;connectable=0;strokeColor=inherit;overflow=hidden;fillColor=none;top=0;left=0;bottom=0;right=0;pointerEvents=1;fontSize=16;" vertex="1" parent="Avi3vkmwuteyZWdYdr20-75">
          <mxGeometry width="85" height="26" as="geometry">
            <mxRectangle width="85" height="26" as="alternateBounds" />
          </mxGeometry>
        </mxCell>
        <mxCell id="Avi3vkmwuteyZWdYdr20-77" value="1" style="shape=partialRectangle;html=1;whiteSpace=wrap;connectable=0;strokeColor=inherit;overflow=hidden;fillColor=none;top=0;left=0;bottom=0;right=0;pointerEvents=1;fontSize=16;" vertex="1" parent="Avi3vkmwuteyZWdYdr20-75">
          <mxGeometry x="85" width="85" height="26" as="geometry">
            <mxRectangle width="85" height="26" as="alternateBounds" />
          </mxGeometry>
        </mxCell>
        <mxCell id="Avi3vkmwuteyZWdYdr20-78" value="&lt;font style=&quot;font-size: 10px;&quot;&gt;Arthur@gmail.com&lt;/font&gt;" style="shape=partialRectangle;html=1;whiteSpace=wrap;connectable=0;strokeColor=inherit;overflow=hidden;fillColor=none;top=0;left=0;bottom=0;right=0;pointerEvents=1;fontSize=16;" vertex="1" parent="Avi3vkmwuteyZWdYdr20-75">
          <mxGeometry x="170" width="85" height="26" as="geometry">
            <mxRectangle width="85" height="26" as="alternateBounds" />
          </mxGeometry>
        </mxCell>
        <mxCell id="Avi3vkmwuteyZWdYdr20-79" value="" style="shape=tableRow;horizontal=0;startSize=0;swimlaneHead=0;swimlaneBody=0;strokeColor=inherit;top=0;left=0;bottom=0;right=0;collapsible=0;dropTarget=0;fillColor=none;points=[[0,0.5],[1,0.5]];portConstraint=eastwest;fontSize=16;" vertex="1" parent="Avi3vkmwuteyZWdYdr20-70">
          <mxGeometry y="83" width="255" height="27" as="geometry" />
        </mxCell>
        <mxCell id="Avi3vkmwuteyZWdYdr20-80" value="" style="shape=partialRectangle;html=1;whiteSpace=wrap;connectable=0;strokeColor=inherit;overflow=hidden;fillColor=none;top=0;left=0;bottom=0;right=0;pointerEvents=1;fontSize=16;" vertex="1" parent="Avi3vkmwuteyZWdYdr20-79">
          <mxGeometry width="85" height="27" as="geometry">
            <mxRectangle width="85" height="27" as="alternateBounds" />
          </mxGeometry>
        </mxCell>
        <mxCell id="Avi3vkmwuteyZWdYdr20-81" value="" style="shape=partialRectangle;html=1;whiteSpace=wrap;connectable=0;strokeColor=inherit;overflow=hidden;fillColor=none;top=0;left=0;bottom=0;right=0;pointerEvents=1;fontSize=16;" vertex="1" parent="Avi3vkmwuteyZWdYdr20-79">
          <mxGeometry x="85" width="85" height="27" as="geometry">
            <mxRectangle width="85" height="27" as="alternateBounds" />
          </mxGeometry>
        </mxCell>
        <mxCell id="Avi3vkmwuteyZWdYdr20-82" value="" style="shape=partialRectangle;html=1;whiteSpace=wrap;connectable=0;strokeColor=inherit;overflow=hidden;fillColor=none;top=0;left=0;bottom=0;right=0;pointerEvents=1;fontSize=16;" vertex="1" parent="Avi3vkmwuteyZWdYdr20-79">
          <mxGeometry x="170" width="85" height="27" as="geometry">
            <mxRectangle width="85" height="27" as="alternateBounds" />
          </mxGeometry>
        </mxCell>
        <mxCell id="Avi3vkmwuteyZWdYdr20-83" value="LÃ³gico" style="rounded=0;whiteSpace=wrap;html=1;fillColor=#f8cecc;strokeColor=#b85450;" vertex="1" parent="1">
          <mxGeometry x="90" y="330" width="90" height="30" as="geometry" />
        </mxCell>
        <mxCell id="Avi3vkmwuteyZWdYdr20-84" value="FÃ­sico" style="rounded=0;whiteSpace=wrap;html=1;fillColor=#f8cecc;strokeColor=#b85450;" vertex="1" parent="1">
          <mxGeometry x="120" y="710" width="90" height="30" as="geometry" />
        </mxCell>
      </root>
    </mxGraphModel>
  </diagram>
</mxfile>
